<svg width="34" height="32" viewBox="0 0 34 32" fill="none" xmlns="http://www.w3.org/2000/svg">
<path fill-rule="evenodd" clip-rule="evenodd" d="M16.9414 0C7.88505 0 0.541321 7.34466 0.541321 16.405C0.541321 23.6533 5.24043 29.8026 11.7567 31.9718C12.5763 32.1236 12.8773 31.6159 12.8773 31.1826C12.8773 30.7915 12.862 29.4991 12.855 28.1283C8.29239 29.1207 7.32965 26.1927 7.32965 26.1927C6.58364 24.2965 5.50874 23.7924 5.50874 23.7924C4.02083 22.7742 5.6209 22.795 5.6209 22.795C7.26778 22.9108 8.13496 24.4856 8.13496 24.4856C9.59766 26.9936 11.9715 26.2685 12.9074 25.8494C13.0545 24.789 13.4796 24.0654 13.9486 23.6558C10.306 23.2408 6.47662 21.8342 6.47662 15.5483C6.47662 13.7573 7.1173 12.2938 8.16647 11.1449C7.99618 10.7317 7.43487 9.0632 8.32532 6.80351C8.32532 6.80351 9.70249 6.36259 12.8365 8.48512C14.1446 8.12152 15.5476 7.93934 16.9414 7.93316C18.3351 7.93934 19.7392 8.12152 21.0499 8.48512C24.1802 6.36259 25.5554 6.80351 25.5554 6.80351C26.448 9.0632 25.8865 10.7317 25.7162 11.1449C26.7677 12.2938 27.404 13.7572 27.404 15.5483C27.404 21.8491 23.5674 23.2366 19.9155 23.6426C20.5037 24.1518 21.0279 25.1502 21.0279 26.6806C21.0279 28.8756 21.0088 30.6422 21.0088 31.1826C21.0088 31.6192 21.304 32.1307 22.1354 31.9696C28.6481 29.798 33.3413 23.6509 33.3413 16.405C33.3413 7.34466 25.9986 0 16.9414 0Z" fill="white"/>
<path d="M6.69171 23.3648C6.65595 23.4465 6.52851 23.471 6.41269 23.415C6.29457 23.3613 6.22817 23.2498 6.26648 23.1677C6.30159 23.0835 6.42903 23.06 6.5469 23.1166C6.66527 23.1701 6.7327 23.2827 6.69171 23.3648ZM7.49263 24.0871C7.41499 24.1599 7.26315 24.1261 7.1601 24.0111C7.0536 23.8963 7.03368 23.743 7.11247 23.669C7.19254 23.5964 7.33977 23.6303 7.44653 23.7452C7.55303 23.8612 7.57384 24.0135 7.49263 24.0871ZM8.04211 25.0113C7.94225 25.0814 7.77905 25.0157 7.6783 24.8694C7.57857 24.7231 7.57857 24.5476 7.68047 24.4772C7.7816 24.4069 7.94225 24.4701 8.04441 24.6153C8.14401 24.7642 8.14414 24.9396 8.04211 25.0113ZM8.97123 26.0818C8.88197 26.1812 8.69196 26.1546 8.55277 26.0188C8.41051 25.8861 8.3708 25.6978 8.46032 25.5983C8.5506 25.4986 8.74176 25.5266 8.88197 25.6613C9.02333 25.7937 9.06637 25.9835 8.97123 26.0818ZM10.1721 26.4432C10.1329 26.5721 9.94978 26.6307 9.76538 26.5759C9.58124 26.5195 9.4607 26.3685 9.49786 26.2383C9.53617 26.1085 9.72005 26.0475 9.90585 26.1061C10.0897 26.1622 10.2104 26.3121 10.1721 26.4432ZM11.539 26.5965C11.5436 26.7322 11.3871 26.8448 11.1935 26.8473C10.9988 26.8515 10.8414 26.7417 10.8393 26.6082C10.8393 26.4711 10.9922 26.3596 11.1868 26.3564C11.3804 26.3525 11.539 26.4616 11.539 26.5965ZM12.8816 26.5444C12.9048 26.6769 12.7702 26.8129 12.578 26.8491C12.3891 26.8839 12.2141 26.8022 12.19 26.6709C12.1665 26.5351 12.3036 26.3992 12.4922 26.364C12.6848 26.3302 12.8571 26.4098 12.8816 26.5444Z" fill="white"/>
</svg>
