<svg width="33" height="32" viewBox="0 0 33 32" fill="none" xmlns="http://www.w3.org/2000/svg">
<path d="M27.604 27.2693H22.8653V19.844C22.8653 18.0733 22.8293 15.7947 20.396 15.7947C17.9253 15.7947 17.548 17.7213 17.548 19.7133V27.2693H12.8093V12H17.3613V14.0813H17.4226C18.0586 12.8813 19.6053 11.6147 21.916 11.6147C26.7173 11.6147 27.6053 14.7747 27.6053 18.888L27.604 27.2693ZM7.45731 9.91067C5.93198 9.91067 4.70664 8.676 4.70664 7.15733C4.70664 5.64 5.93331 4.40667 7.45731 4.40667C8.97731 4.40667 10.2093 5.64 10.2093 7.15733C10.2093 8.676 8.97598 9.91067 7.45731 9.91067ZM9.83331 27.2693H5.08131V12H9.83331V27.2693ZM29.9746 0H2.70264C1.39731 0 0.341309 1.032 0.341309 2.30533V29.6947C0.341309 30.9693 1.39731 32 2.70264 32H29.9706C31.2746 32 32.3413 30.9693 32.3413 29.6947V2.30533C32.3413 1.032 31.2746 0 29.9706 0H29.9746Z" fill="white"/>
</svg>
