<svg width="40" height="32" viewBox="0 0 40 32" fill="none" xmlns="http://www.w3.org/2000/svg">
<path d="M39.5413 3.78587C38.093 4.42854 36.5374 4.86301 34.9019 5.05829C36.5711 4.05873 37.8499 2.47477 38.4537 0.589604C36.868 1.53138 35.1327 2.1944 33.323 2.54984C31.8503 0.980066 29.7503 0 27.4269 0C22.9673 0 19.3505 3.6153 19.3505 8.07752C19.3505 8.70977 19.4217 9.32658 19.5586 9.91879C12.8453 9.5814 6.89344 6.36564 2.90957 1.47927C2.21393 2.67266 1.81575 4.06019 1.81575 5.54061C1.81575 8.34266 3.24196 10.8149 5.40905 12.2631C4.12617 12.2234 2.87144 11.8771 1.74976 11.2532V11.3553C1.74976 15.2693 4.53367 18.533 8.22914 19.2752C7.55029 19.4612 6.83786 19.5584 6.10083 19.5584C5.57973 19.5584 5.07416 19.5091 4.58027 19.4162C5.60819 22.6242 8.59135 24.9594 12.125 25.0254C9.36049 27.1925 5.87709 28.4843 2.09372 28.4843C1.44208 28.4843 0.798049 28.4454 0.165802 28.3692C3.74106 30.6617 7.98611 32 12.5479 32C27.4049 32 35.5302 19.6916 35.5302 9.01765C35.5302 8.66723 35.5225 8.31941 35.5056 7.97284C37.0887 6.82779 38.4553 5.41 39.5413 3.78587Z" fill="white"/>
</svg>
