<svg width="46" height="32" viewBox="0 0 46 32" fill="none" xmlns="http://www.w3.org/2000/svg">
<path d="M30.3507 15.5339C26.1731 13.3013 18.0841 9.10596 18.0841 9.10596L28.8688 16.3547C28.8688 16.3547 26.9043 17.4443 30.3507 15.5339Z" fill="#F6F6F6"/>
<path d="M18.8703 31.9603C10.1929 31.8006 7.22919 31.6569 5.4075 31.2815C4.17501 31.0322 3.10397 30.4785 2.31865 29.6754C1.71171 29.0676 1.22902 28.1403 0.854538 26.8537C0.533312 25.7818 0.408202 24.89 0.229837 22.7116C-0.0432054 17.7951 -0.108296 13.7755 0.229837 9.28429C0.508797 6.80408 0.64405 3.85979 2.49702 2.14207C3.37194 1.33816 4.38972 0.820818 5.53261 0.606949C7.31795 0.267971 14.9243 0 22.7985 0C30.6551 0 38.2783 0.267971 40.0653 0.606949C41.4931 0.87492 42.8321 1.67799 43.6182 2.71352C45.3089 5.37294 45.3385 8.67988 45.5101 11.2666C45.5811 12.4991 45.5811 19.4976 45.5101 20.7301C45.243 24.8181 45.0283 26.2645 44.4213 27.7641C44.046 28.7109 43.7256 29.2105 43.1711 29.7642C42.3013 30.6162 41.1926 31.183 39.9926 31.3889C32.4835 31.9536 26.1072 32.0762 18.8703 31.9603ZM30.3693 15.5338C26.1917 13.3013 22.1916 11.2311 18.1027 9.08817V21.9085C22.4055 19.5695 26.9415 17.4265 30.3871 15.5161L30.3693 15.5338Z" fill="white"/>
</svg>
